<svg width="200" height="200" viewBox="0 0 200 200" fill="none" xmlns="http://www.w3.org/2000/svg">
<path d="M153.634 107.364C153.634 112.075 151.762 116.594 148.431 119.926C145.099 123.257 140.58 125.129 135.869 125.129" stroke="white" stroke-miterlimit="10"/>
<path d="M38.1602 98.4812C38.1602 100.837 39.096 103.096 40.7618 104.762C42.4276 106.428 44.6869 107.364 47.0427 107.364C49.3985 107.364 51.6578 106.428 53.3237 104.762C54.9895 103.096 55.9253 100.837 55.9253 98.4812" stroke="white" stroke-miterlimit="10"/>
<path d="M47.0425 107.364C47.0425 112.075 48.9142 116.594 52.2458 119.926C55.5774 123.257 60.096 125.129 64.8076 125.129" stroke="white" stroke-miterlimit="10"/>
<path d="M86.0552 120.528V134.74L100.267 127.634L86.0552 120.528Z" stroke="white" stroke-miterlimit="10"/>
<path d="M114.479 120.528V134.74L100.267 127.634L114.479 120.528Z" stroke="white" stroke-miterlimit="10"/>
<path d="M100.338 59.3623C90.9152 59.3623 81.8779 63.1057 75.2147 69.7689C68.5515 76.4321 64.8081 85.4694 64.8081 94.8926V110.881H135.869V94.8926C135.869 85.4694 132.125 76.4321 125.462 69.7689C118.799 63.1057 109.762 59.3623 100.338 59.3623Z" stroke="white" stroke-miterlimit="10"/>
<path d="M64.7368 114.47H135.797V139.341C135.797 142.168 134.674 144.879 132.675 146.878C130.676 148.877 127.965 150 125.138 150H75.3959C72.5689 150 69.8578 148.877 67.8588 146.878C65.8598 144.879 64.7368 142.168 64.7368 139.341V114.47Z" stroke="white" stroke-miterlimit="10"/>
<path d="M91.4556 60.7563V93.1517C91.4556 95.5075 92.3914 97.7668 94.0572 99.4326C95.723 101.098 97.9823 102.034 100.338 102.034C102.694 102.034 104.953 101.098 106.619 99.4326C108.285 97.7668 109.221 95.5075 109.221 93.1517V60.7563" stroke="white" stroke-miterlimit="10"/>
<path d="M100.267 142.734C101.739 142.734 102.932 141.541 102.932 140.069C102.932 138.597 101.739 137.404 100.267 137.404C98.7956 137.404 97.6025 138.597 97.6025 140.069C97.6025 141.541 98.7956 142.734 100.267 142.734Z" stroke="white"/>
<path d="M100.267 55.3295C101.739 55.3295 102.932 54.1365 102.932 52.6648C102.932 51.1931 101.739 50 100.267 50C98.7956 50 97.6025 51.1931 97.6025 52.6648C97.6025 54.1365 98.7956 55.3295 100.267 55.3295Z" stroke="white"/>
<path d="M100.267 98.4457C103.21 98.4457 105.597 96.0596 105.597 93.1162C105.597 90.1727 103.21 87.7866 100.267 87.7866C97.3236 87.7866 94.9375 90.1727 94.9375 93.1162C94.9375 96.0596 97.3236 98.4457 100.267 98.4457Z" stroke="white" stroke-miterlimit="10"/>
<path d="M102.114 93.1161C101.643 93.1161 101.191 92.9289 100.858 92.5957C100.525 92.2626 100.338 91.8107 100.338 91.3395C100.347 91.0388 100.433 90.7454 100.587 90.4868H100.356C99.8287 90.4868 99.3134 90.6431 98.8752 90.9359C98.437 91.2287 98.0955 91.6449 97.8938 92.1318C97.6921 92.6187 97.6393 93.1545 97.7421 93.6715C97.8449 94.1884 98.0987 94.6632 98.4714 95.0359C98.8441 95.4085 99.3189 95.6623 99.8358 95.7652C100.353 95.868 100.889 95.8152 101.375 95.6135C101.862 95.4118 102.279 95.0703 102.571 94.6321C102.864 94.1938 103.02 93.6786 103.02 93.1516C103.029 93.063 103.029 92.9737 103.02 92.8851C102.748 93.0497 102.433 93.13 102.114 93.1161Z" fill="white"/>
<path d="M49.6367 70.0569H44.3071V94.9281L46.9719 98.4811L49.6367 94.9281V70.0569Z" stroke="white" stroke-miterlimit="10"/>
<path d="M49.6367 64.7273H44.3071V70.0568H49.6367V64.7273Z" stroke="white" stroke-miterlimit="10"/>
<path d="M44.1468 70.0569H40.5938V82.4925" stroke="white" stroke-miterlimit="10"/>
<path d="M166.886 81.9417H152.674" stroke="white" stroke-miterlimit="10"/>
<path d="M166.886 87.2712H152.674" stroke="white" stroke-miterlimit="10"/>
<path d="M169.622 96.7046V77.163C169.622 75.9851 169.154 74.8554 168.321 74.0225C167.488 73.1896 166.359 72.7217 165.181 72.7217H145.639" stroke="white" stroke-miterlimit="10"/>
<path d="M141.198 80.716V77.163C141.198 75.9851 141.666 74.8554 142.499 74.0225C143.331 73.1896 144.461 72.7217 145.639 72.7217C146.817 72.7217 147.947 73.1896 148.78 74.0225C149.612 74.8554 150.08 75.9851 150.08 77.163V98.4811C150.08 99.659 150.548 100.789 151.381 101.622C152.214 102.455 153.344 102.922 154.522 102.922M154.522 102.922C155.7 102.922 156.829 102.455 157.662 101.622C158.495 100.789 158.963 99.659 158.963 98.4811V96.7046H175.84V98.4811C175.84 99.659 175.372 100.789 174.539 101.622C173.706 102.455 172.576 102.922 171.398 102.922H154.522Z" stroke="white" stroke-miterlimit="10"/>
<path d="M100.267 59.3623V55.3296" stroke="white"/>
</svg>
