<svg width="200" height="200" viewBox="0 0 200 200" fill="none" xmlns="http://www.w3.org/2000/svg">
<path d="M97.854 52.3472V98.1291H163.979" stroke="white" stroke-miterlimit="10"/>
<path d="M102.929 93.0329L115.173 74.4663L123.928 83.221L136.383 63.153L146.533 73.3033L161.632 53.1296" stroke="white" stroke-miterlimit="10"/>
<path d="M138.561 113.439H97.854V121.073H138.561V113.439Z" stroke="white" stroke-miterlimit="10"/>
<path d="M164 121.073H97.854V128.707H164V121.073Z" stroke="white" stroke-miterlimit="10"/>
<path d="M123.293 133.782H97.854V141.416H123.293V133.782Z" stroke="white" stroke-miterlimit="10"/>
<path d="M156.366 141.416H97.854V149.05H156.366V141.416Z" stroke="white" stroke-miterlimit="10"/>
<path d="M56.1534 123.611H40.8857V149.05H56.1534V123.611Z" stroke="white" stroke-miterlimit="10"/>
<path d="M86.6676 128.707H71.3999V149.05H86.6676V128.707Z" stroke="white" stroke-miterlimit="10"/>
<path d="M71.4 113.439H56.1323V149.05H71.4V113.439Z" stroke="white" stroke-miterlimit="10"/>
<path d="M87.7464 73.261C87.2635 67.2529 84.6577 61.6129 80.3956 57.3508C76.1335 53.0887 70.4935 50.4829 64.4854 50V67.9956C65.7416 68.3512 66.8864 69.0214 67.8114 69.9428C68.7365 70.8641 69.4113 72.0062 69.7719 73.261H87.7464Z" stroke="white" stroke-miterlimit="10"/>
<path d="M62.455 100.751C68.2446 100.738 73.8557 98.7462 78.3571 95.1053L65.5212 82.2694C64.5587 82.7098 63.5135 82.9405 62.455 82.9461C60.671 82.888 58.9645 82.2033 57.6353 81.012C56.306 79.8207 55.439 78.1992 55.1866 76.4321C54.9342 74.6651 55.3124 72.8657 56.255 71.3499C57.1975 69.8341 58.644 68.6988 60.3404 68.1436V50C57.008 50.1388 53.7356 50.9327 50.71 52.3362C47.6844 53.7398 44.9649 55.7255 42.7068 58.18C38.1462 63.1371 35.7416 69.7029 36.022 76.433C36.3025 83.163 39.2449 89.506 44.202 94.0666C49.1592 98.6272 55.725 101.032 62.455 100.751Z" stroke="white" stroke-miterlimit="10"/>
<path d="M81.4234 92.2927C85.0984 88.1842 87.3266 82.985 87.7673 77.4902H69.7717C69.5639 78.2468 69.2278 78.9621 68.7778 79.6049L81.4234 92.2927Z" stroke="white" stroke-miterlimit="10"/>
</svg>
