<svg width="200" height="200" viewBox="0 0 200 200" fill="none" xmlns="http://www.w3.org/2000/svg">
<path d="M159.977 72.6545L154.447 78.1844V72.6545H134.65V50.5347H169.673V72.6545H159.977Z" stroke="white" stroke-miterlimit="10"/>
<path d="M159.535 63.2902C160.553 63.2902 161.378 62.4649 161.378 61.4468C161.378 60.4288 160.553 59.6035 159.535 59.6035C158.517 59.6035 157.691 60.4288 157.691 61.4468C157.691 62.4649 158.517 63.2902 159.535 63.2902Z" fill="white"/>
<path d="M152.161 63.2902C153.179 63.2902 154.005 62.4649 154.005 61.4468C154.005 60.4288 153.179 59.6035 152.161 59.6035C151.143 59.6035 150.318 60.4288 150.318 61.4468C150.318 62.4649 151.143 63.2902 152.161 63.2902Z" fill="white"/>
<path d="M144.788 63.2902C145.806 63.2902 146.631 62.4649 146.631 61.4468C146.631 60.4288 145.806 59.6035 144.788 59.6035C143.77 59.6035 142.945 60.4288 142.945 61.4468C142.945 62.4649 143.77 63.2902 144.788 63.2902Z" fill="white"/>
<path d="M154.926 137.097C154.926 132.208 152.984 127.519 149.527 124.063C146.071 120.606 141.382 118.664 136.493 118.664" stroke="white" stroke-miterlimit="10"/>
<path d="M44.3271 137.097C44.3271 132.208 46.2692 127.519 49.7261 124.063C53.183 120.606 57.8715 118.664 62.7603 118.664" stroke="white" stroke-miterlimit="10"/>
<path d="M57.8939 76.8938C54.4718 76.8938 51.1898 78.2532 48.77 80.6731C46.3502 83.0929 44.9907 86.3749 44.9907 89.797C44.9907 93.2192 46.3502 96.5012 48.77 98.921C51.1898 101.341 54.4718 102.7 57.8939 102.7V76.8938Z" stroke="white" stroke-miterlimit="10"/>
<path d="M99.6266 55.9539C89.849 55.9539 80.4719 59.838 73.5582 66.7518C66.6444 73.6655 62.7603 83.0427 62.7603 92.8202V109.41H136.493V92.8202C136.493 83.0427 132.609 73.6655 125.695 66.7518C118.781 59.838 109.404 55.9539 99.6266 55.9539Z" stroke="white" stroke-miterlimit="10"/>
<path d="M62.7603 113.134H136.493V138.94C136.493 141.873 135.328 144.686 133.254 146.761C131.179 148.835 128.366 150 125.433 150H73.8202C70.8869 150 68.0738 148.835 65.9996 146.761C63.9255 144.686 62.7603 141.873 62.7603 138.94V113.134Z" stroke="white" stroke-miterlimit="10"/>
<path d="M90.4102 57L90.4102 91.0138C90.4102 93.4582 91.3812 95.8025 93.1097 97.5309C94.8381 99.2594 97.1824 100.23 99.6267 100.23C102.071 100.23 104.415 99.2594 106.144 97.5309C107.872 95.8025 108.843 93.4582 108.843 91.0138V57" stroke="white" stroke-miterlimit="10"/>
<path d="M99.6266 96.4884C102.681 96.4884 105.157 94.0125 105.157 90.9584C105.157 87.9043 102.681 85.4285 99.6266 85.4285C96.5725 85.4285 94.0967 87.9043 94.0967 90.9584C94.0967 94.0125 96.5725 96.4884 99.6266 96.4884Z" stroke="white" stroke-miterlimit="10"/>
<path d="M101.452 90.977C100.963 90.977 100.494 90.7828 100.148 90.4371C99.8025 90.0914 99.6084 89.6226 99.6084 89.1337C99.6149 88.8154 99.7038 88.5042 99.8664 88.2305H99.6268C99.0799 88.2305 98.5453 88.3926 98.0906 88.6965C97.6359 89.0003 97.2816 89.4321 97.0723 89.9373C96.863 90.4426 96.8083 90.9985 96.9149 91.5349C97.0216 92.0712 97.285 92.5639 97.6717 92.9506C98.0584 93.3373 98.551 93.6006 99.0873 93.7073C99.6237 93.814 100.18 93.7592 100.685 93.5499C101.19 93.3407 101.622 92.9863 101.926 92.5316C102.23 92.0769 102.392 91.5423 102.392 90.9954C102.401 90.9035 102.401 90.8109 102.392 90.7189C102.11 90.8932 101.783 90.9827 101.452 90.977Z" fill="white"/>
<path d="M57.894 78.7373C61.1227 70.2853 66.8412 63.0125 74.293 57.8811C81.7449 52.7498 90.579 50.0015 99.6267 50" stroke="white" stroke-miterlimit="10"/>
<path d="M79.0921 100.175C80.6192 100.175 81.8571 98.9371 81.8571 97.41C81.8571 95.8829 80.6192 94.645 79.0921 94.645C77.5651 94.645 76.3271 95.8829 76.3271 97.41C76.3271 98.9371 77.5651 100.175 79.0921 100.175Z" stroke="white"/>
<path d="M57.894 97.4102H76.3272" stroke="white" stroke-miterlimit="10"/>
<path d="M106.079 137.539L99.6269 143.991L93.1753 137.539L99.6269 124.636L106.079 137.539Z" stroke="white" stroke-miterlimit="10"/>
<path d="M99.6268 123.272C101.154 123.272 102.392 122.034 102.392 120.507C102.392 118.98 101.154 117.742 99.6268 117.742C98.0997 117.742 96.8618 118.98 96.8618 120.507C96.8618 122.034 98.0997 123.272 99.6268 123.272Z" stroke="white"/>
</svg>
